<?xml version="1.0" encoding="UTF-8" standalone="no"?>
<!DOCTYPE svg PUBLIC "-//W3C//DTD SVG 1.1//EN" "http://www.w3.org/Graphics/SVG/1.1/DTD/svg11.dtd">
<svg width="100%" height="100%" viewBox="0 0 48 36" version="1.1" xmlns="http://www.w3.org/2000/svg" xmlns:xlink="http://www.w3.org/1999/xlink" xml:space="preserve" xmlns:serif="http://www.serif.com/" style="fill-rule:evenodd;clip-rule:evenodd;stroke-linejoin:round;stroke-miterlimit:2;">
    <g transform="matrix(1,0,0,1,-10.6342,-27.7232)">
        <g transform="matrix(0.753434,0,0,0.862798,5.77774,10.2218)">
            <rect x="6.446" y="20.284" width="63.708" height="41.725" style="fill:none;"/>
        </g>
        <g transform="matrix(0.44564,0,0,0.442856,8.40172,17.2715)">
            <path d="M99.91,31.07C97.12,31.081 94.829,33.379 94.829,36.17C94.829,37.015 95.039,37.846 95.44,38.59C94.94,38.84 93.76,39.43 92.11,40.29C91.494,38.944 90.144,38.077 88.664,38.077C86.585,38.077 84.874,39.788 84.874,41.867C84.874,42.571 85.07,43.261 85.44,43.86L82.81,45.33C82.249,44.527 81.329,44.047 80.35,44.047C78.721,44.047 77.375,45.372 77.35,47C77.352,47.469 77.461,47.931 77.67,48.35L74.85,50C74.459,49.669 73.962,49.488 73.45,49.488C72.26,49.488 71.28,50.468 71.28,51.658C71.28,51.659 71.28,51.659 71.28,51.66C71.283,51.849 71.306,52.036 71.35,52.22C67.744,54.53 64.287,57.065 61,59.81C57.288,51.243 52.011,43.443 45.44,36.81C44.62,36 43.93,36.35 44.88,37.37C50.88,43.81 55.57,53.13 58.77,61.62C46.6,72 33.21,92.15 47.89,98.47C50.03,99.39 51,97.63 50.08,97.09C49.92,97 43.38,93.46 47.54,82.6L58,82.6C58.549,82.6 59,82.149 59,81.6C59,81.051 58.549,80.6 58,80.6L48.4,80.6C48.97,79.4 49.65,78.12 50.47,76.75L58,76.75C58.549,76.75 59,76.299 59,75.75C59,75.201 58.549,74.75 58,74.75L51.77,74.75C52.55,73.59 53.42,72.38 54.4,71.1L58,71.1C58.549,71.1 59,70.649 59,70.1C59,69.551 58.549,69.1 58,69.1L56,69.1C57.14,67.71 58.39,66.26 59.78,64.74C62.54,72.74 63.88,79.55 63.58,81.82C63.517,82.633 63.036,83.358 62.31,83.73C61.79,83.97 61.58,84.73 62.39,84.92C65,85.55 66.58,83 66.87,81C67.16,79 65.75,71.32 62,62.3C65.234,59.144 68.689,56.223 72.34,53.56C72.669,53.748 73.041,53.848 73.42,53.85C74.61,53.85 75.59,52.87 75.59,51.68C75.605,51.537 75.605,51.393 75.59,51.25C76.59,50.58 77.53,49.92 78.48,49.25C79.003,49.65 79.644,49.867 80.303,49.867C81.899,49.867 83.229,48.594 83.3,47C83.296,46.757 83.266,46.516 83.21,46.28C84.157,45.687 85.077,45.127 85.97,44.6C86.683,45.351 87.675,45.776 88.71,45.776C90.782,45.776 92.488,44.072 92.49,42C92.492,41.641 92.442,41.284 92.34,40.94L95.71,39C96.661,40.365 98.223,41.18 99.886,41.18C102.678,41.18 104.976,38.882 104.976,36.09C104.976,33.307 102.693,31.013 99.91,31L99.91,31.07Z" style="fill:rgb(255,124,0);fill-rule:nonzero;"/>
        </g>
        <g transform="matrix(0.44564,0,0,0.442856,8.40172,17.2715)">
            <path d="M42.05,71.78C42.24,71.37 42.4,70.92 42.59,70.38C42.815,69.77 42.995,69.145 43.13,68.51L45.06,60.15C45.22,59.3 45.34,58.66 45.38,58.29C45.432,57.959 45.452,57.624 45.44,57.29L45.44,56.91L49.81,56.91L47.18,68.51C46.99,69.34 46.87,69.97 46.8,70.42C46.726,70.869 46.696,71.325 46.71,71.78L42.05,71.78Z" style="fill:white;fill-rule:nonzero;"/>
        </g>
        <g transform="matrix(0.44564,0,0,0.442856,8.40172,17.2715)">
            <path d="M30.14,60.15C30.217,59.904 30.258,59.648 30.26,59.39C30.257,59.284 30.236,59.18 30.2,59.08C29.965,58.851 29.635,58.743 29.31,58.79L22.6,58.79C22.241,58.746 21.879,58.85 21.6,59.08C21.327,59.37 21.17,59.751 21.16,60.15L20.36,63.57L29.3,63.57L30.09,60.15L30.14,60.15ZM31.14,71.78L18.2,71.78C17.225,71.904 16.244,71.576 15.54,70.89C15.263,70.47 15.129,69.972 15.16,69.47C15.166,68.923 15.24,68.379 15.38,67.85L16.99,60.85C17.193,59.715 17.738,58.668 18.55,57.85C19.414,57.21 20.477,56.895 21.55,56.96L31.11,56.96C32.47,56.96 33.36,57.25 33.8,57.85C34.11,58.271 34.259,58.789 34.22,59.31C34.21,59.821 34.136,60.328 34,60.82L33,65.48L20,65.48L19.3,68.48C19.25,68.72 19.22,68.965 19.21,69.21C19.21,69.37 19.21,69.5 19.27,69.56C19.33,69.62 19.65,69.85 20.1,69.85L29.6,69.85C30.405,69.857 31.209,69.784 32,69.63L31.11,71.78L31.14,71.78Z" style="fill:white;fill-rule:nonzero;"/>
        </g>
        <g transform="matrix(0.44564,0,0,0.442856,8.40172,17.2715)">
            <path d="M34.38,71.78C34.58,71.32 34.75,70.78 34.95,70.22C35.186,69.533 35.376,68.832 35.52,68.12L38.85,52.71C39.05,51.71 39.18,51.04 39.25,50.62C39.32,50.2 39.32,49.69 39.32,49.05L44,49.05L39.82,68.12C39.62,69.04 39.49,69.75 39.42,70.25C39.338,70.756 39.304,71.268 39.32,71.78L34.38,71.78Z" style="fill:white;fill-rule:nonzero;"/>
        </g>
        <g transform="matrix(0.44564,0,0,0.442856,8.40172,17.2715)">
            <path d="M67.32,71.78C67.51,71.37 67.67,70.92 67.86,70.38C68.085,69.77 68.265,69.145 68.4,68.51L70.33,60.15C70.49,59.3 70.62,58.66 70.65,58.29C70.702,57.959 70.722,57.624 70.71,57.29L70.71,56.91L75.08,56.91L72.45,68.51C72.26,69.34 72.14,69.97 72.07,70.42C72.003,70.87 71.979,71.325 72,71.78L67.32,71.78Z" style="fill:white;fill-rule:nonzero;"/>
        </g>
        <g transform="matrix(0.44564,0,0,0.442856,8.40172,17.2715)">
            <path d="M87.82,59.39C87.34,59.39 86.87,59.33 86.33,59.33L84.21,59.33C83.875,59.307 83.541,59.395 83.26,59.58C82.971,59.841 82.78,60.195 82.72,60.58L81,68.51C80.73,69.461 80.579,70.442 80.55,71.43L80.55,71.78L75.88,71.78C76.071,71.336 76.238,70.882 76.38,70.42C76.51,70 76.67,69.42 76.89,68.51L78.79,60.15C79.01,59.33 79.11,58.7 79.2,58.22C79.258,57.779 79.282,57.334 79.27,56.89L83.16,56.89L83,58.41C83.221,57.945 83.568,57.55 84,57.27C84.511,56.992 85.089,56.86 85.67,56.89L89.48,56.89L90.39,58.54C90.191,58.722 90.01,58.923 89.85,59.14C89.63,59.42 89.48,59.55 89.38,59.55C88.81,59.49 88.3,59.42 87.83,59.39L87.82,59.39Z" style="fill:white;fill-rule:nonzero;"/>
        </g>
        <g transform="matrix(0.44564,0,0,0.442856,8.40172,17.2715)">
            <path d="M50.55,51.69C50.55,52.869 49.579,53.84 48.4,53.84C47.221,53.84 46.25,52.869 46.25,51.69C46.25,50.511 47.221,49.54 48.4,49.54C48.403,49.54 48.407,49.54 48.41,49.54C49.584,49.54 50.55,50.506 50.55,51.68C50.55,51.683 50.55,51.687 50.55,51.69Z" style="fill:white;fill-rule:nonzero;"/>
        </g>
    </g>
</svg>
